<svg xmlns="http://www.w3.org/2000/svg" id="Capa_1" data-name="Capa 1" viewBox="0 0 309.01 89.12"><defs><style>      .cls-1 {        fill: #fff;        stroke-width: 0px;      }    </style></defs><g><path class="cls-1" d="m75.03,38.71c-2.94-11.49-6.34-23.16-10.1-34.69-.18-.54-.34-1.04-.5-1.54L63.61,0l-2.45.93-.91.35c-.42.15-.83.31-1.24.47-7.43,2.84-14.84,5.69-22.02,8.48C13.55,19.32,9.51,21.14,5.81,26.07c-.56.76-1.1,1.55-1.58,2.37-.1.17-.21.36-.32.56l-.33.57v.03c-6.72,12.68-2.02,28.14-1.46,29.89,2.73,8.43,8.05,15.53,15.82,21.09,5.8,4.15,11.14,6.07,12.64,6.56,4.09,1.3,8.52,1.98,12.84,1.98,5.49,0,10.75-1.07,15.65-3.2,9.13-3.96,15.3-9.59,18.35-16.74,2.75-6.45,2.31-12.15-2.39-30.47Zm.09,29.49c-2.79,6.54-8.52,11.73-17.04,15.43-4.59,1.99-9.52,2.99-14.66,2.99-4.07,0-8.25-.64-12.06-1.85-1.42-.47-6.46-2.28-11.96-6.22-7.33-5.25-12.34-11.92-14.9-19.83-.57-1.78-5.07-16.66,1.58-28.49.1-.18.2-.35.31-.52.43-.73.9-1.44,1.42-2.14,3.3-4.4,7.22-6.14,30.08-15.01,7.25-2.81,14.63-5.65,22-8.47.72-.27,1.44-.55,2.16-.83.17.52.34,1.03.5,1.54,3.74,11.45,7.12,23.05,10.06,34.53,4.52,17.65,4.99,23.05,2.51,28.87Z"></path><path class="cls-1" d="m74.3,63.15c-.25,1.17-.61,2.28-1.09,3.4-4.06,9.53-13.58,13.66-16.28,14.83-4.98,2.16-9.8,2.85-13.91,2.85-2.21,0-4.22-.2-5.95-.47,4.92-.67,11.54-2.46,17.98-6.98,6.13-4.3,10.71-11.34,12.49-14.35,2.21.33,4.46.57,6.75.73Z"></path><path class="cls-1" d="m74.66,57.93c-2.38-.16-4.73-.43-7.02-.78-.78-2.66-1.94-6.72-2.77-10.02-2.67-10.55-4.14-16.36-4.38-23.82-.16-5.08.3-10.25,1.36-15.43,4.08,12.47,7.06,23.2,9.2,31.53,2.24,8.74,3.41,14.31,3.61,18.52Z"></path><path class="cls-1" d="m58.13,6.12c-3.02,3.45-6.14,6.88-9.32,10.24-3.97,4.2-6.92,7.12-9.28,9.48-4.56,4.53-6.85,6.8-9.41,11.3-.49.85-1.28,2.25-2.15,4.13-10.26-6.71-16.37-12.9-16.52-13.06l-1.05-1.05c2.24-2.58,5.2-4.31,13.4-7.68.7-.29,1.42-.58,2.2-.89.43-.18.88-.36,1.35-.54,2.3-.92,4.95-1.95,7.98-3.13.34-.13.68-.27,1.03-.4.35-.14.7-.27,1.06-.41.43-.17.88-.34,1.34-.52.44-.17.89-.34,1.35-.52.75-.29,1.53-.59,2.34-.9.78-.31,1.6-.62,2.43-.94,1.67-.64,3.45-1.33,5.33-2.05,2.48-.95,5.13-1.97,7.93-3.04Z"></path><path class="cls-1" d="m30.27,81.98c-4.7-1.8-18.88-8.38-23.97-24.12-.15-.47-.7-2.22-1.16-4.74-.02-.13-.05-.27-.07-.41-.06-.37-.13-.76-.19-1.17,0-.04-.02-.09-.02-.14-.02-.15-.04-.3-.06-.46-.02-.18-.05-.37-.07-.56-.04-.35-.08-.7-.12-1.06-.04-.44-.08-.88-.11-1.34-.01-.18-.02-.35-.03-.53,0-.13-.02-.27-.02-.4,0-.18-.02-.38-.02-.57-.02-.47-.02-.94-.02-1.43.02-4.19.74-8.87,2.92-13.24,0,0,0,0,0,0,.04-.06.07-.14.11-.21,0,0,0-.02.01-.03,2.99,2.94,9.19,8.67,18.57,14.68-1.18,3.63-2.12,8.13-2.11,13.28.02,9.61,3.28,17.3,6.37,22.44Z"></path><path class="cls-1" d="m5.13,53.13c-.82-4.06-.76-7.1-.74-8.06,0,.48,0,.96.02,1.43,0,.19.01.38.02.57,0,.13.01.27.02.4,0,.18.02.35.03.53.03.46.06.9.11,1.34.04.36.07.72.12,1.06.02.19.05.38.07.56.02.16.04.31.06.46,0,.05.01.09.02.14.06.41.12.8.19,1.17.02.14.05.28.07.41Z"></path><path class="cls-1" d="m7.43,31.61c-.04.07-.07.14-.11.21.03-.07.06-.15.09-.22,0,0,.01.01.02.02Z"></path><path class="cls-1" d="m50.19,9.16c-1.87.72-3.65,1.41-5.33,2.05-.84.33-1.65.64-2.43.94-.81.31-1.59.62-2.34.9-.46.18-.91.35-1.35.52-.46.18-.91.35-1.34.52-.36.14-.71.27-1.06.41-.35.13-.69.27-1.03.4-3.04,1.18-5.68,2.21-7.98,3.13-.47.18-.92.37-1.35.54-.78.31-1.5.61-2.2.89,4.52-2.08,10.57-4.42,22.83-8.98,1.09-.4,2.28-.85,3.58-1.33Z"></path><path class="cls-1" d="m62.13,47.82c-1.93-7.92-3.77-15.43-3.78-24.47,0-4.31.41-10.41,2.34-17.69-2.54,2.85-7.21,9.84-9.84,12.63-4,4.23-6.96,7.17-9.35,9.54-4.51,4.49-6.57,6.54-8.94,10.69-.49.86-1.32,2.31-2.2,4.27,8.98,5.57,20.72,11.21,34.19,13.82-.64-2.12-1.52-5.13-2.42-8.79Zm-28.51-6c.45-.87.84-1.56,1.12-2.05,2.2-3.86,4.05-5.69,8.51-10.13l.03-.02c2.4-2.39,5.38-5.35,9.4-9.61,1.02-1.07,2.28-2.68,3.59-4.42-.29,2.59-.43,5.19-.43,7.76,0,9.34,1.87,16.98,3.85,25.07.4,1.61.82,3.22,1.26,4.82-9.18-2.24-18.35-6.08-27.33-11.42Z"></path><path class="cls-1" d="m28.47,47.81c-1,3.28-1.77,7.24-1.76,11.73.02,9.47,3.41,18.93,6.43,23.72,4.54-.19,12.56-3.36,20.31-8.79,5.08-3.56,9.12-9.37,11.1-12.55-14.67-2.67-27.19-8.71-36.08-14.11Zm23.53,24.6c-6.92,4.86-13.55,7.51-17.51,8.18-2.65-4.87-5.25-13.02-5.26-21.06-.01-2.63.27-5.27.83-7.86,7.53,4.28,18.06,9.22,30.32,11.97-2.07,2.9-4.99,6.39-8.38,8.77Z"></path><path class="cls-1" d="m5.97,30.12l.42-.41c-.1.17-.21.35-.31.52l-.12-.12Z"></path></g><path class="cls-1" d="m134.31,29.48c-.94-2.23-2.25-4.18-3.92-5.83-1.69-1.66-3.69-2.97-6.02-3.93-2.33-.96-4.88-1.44-7.67-1.44h-17.27v52.56h7.84v-15.69h9.36c2.79,0,5.35-.48,7.71-1.44,2.35-.96,4.36-2.27,6.05-3.93,1.67-1.65,2.98-3.6,3.92-5.83.93-2.23,1.4-4.64,1.4-7.24s-.47-5-1.4-7.23Zm-7.27,11.63c-.56,1.34-1.34,2.52-2.34,3.52s-2.25,1.8-3.71,2.38c-1.47.58-3.09.86-4.86.86h-8.86v-22.39h8.86c1.77,0,3.39.29,4.86.87,1.46.57,2.7,1.36,3.71,2.37,1,1.01,1.78,2.2,2.34,3.57.55,1.36.82,2.84.82,4.42s-.27,3.05-.82,4.4Z"></path><path class="cls-1" d="m151.19,20.29c-.96-.96-2.21-1.44-3.74-1.44s-2.79.48-3.75,1.44c-.96.96-1.44,2.21-1.44,3.74s.48,2.79,1.44,3.75c.96.96,2.21,1.44,3.75,1.44s2.78-.48,3.74-1.44c.96-.96,1.44-2.21,1.44-3.75s-.48-2.78-1.44-3.74Zm-7.63,14.47v36h7.78v-36h-7.78Z"></path><path class="cls-1" d="m188.63,38.18c-2.59-2.76-6.17-4.14-10.73-4.14-2.4,0-4.53.48-6.4,1.44-1.88.96-3.44,2.28-4.68,3.96v-4.68h-7.64v36h7.71v-19.8c0-3.17.87-5.66,2.63-7.49,1.75-1.82,3.92-2.73,6.51-2.73,2.88,0,5.05.86,6.52,2.59,1.46,1.73,2.19,4.08,2.19,7.05v20.38h7.78v-21.02c0-4.95-1.3-8.8-3.89-11.56Z"></path><path class="cls-1" d="m220.6,41.67v-6.91h-7.63v-12.74l-7.78,4.24v8.5h-6.12v6.91h6.12v14.4c0,2.83.23,5.19.68,7.06.46,1.87,1.24,3.37,2.34,4.5,1.11,1.13,2.57,1.93,4.4,2.41,1.82.48,4.1.72,6.84.72h1.15v-7.27c-1.68,0-3.01-.09-4-.25-.98-.17-1.75-.52-2.3-1.05-.55-.53-.91-1.28-1.08-2.27-.17-.98-.25-2.29-.25-3.92v-14.33h7.63Z"></path><path class="cls-1" d="m236.08,20.29c-.96-.96-2.21-1.44-3.75-1.44s-2.78.48-3.74,1.44c-.96.96-1.44,2.21-1.44,3.74s.48,2.79,1.44,3.75c.96.96,2.21,1.44,3.74,1.44s2.79-.48,3.75-1.44,1.44-2.21,1.44-3.75-.48-2.78-1.44-3.74Zm-7.63,14.47v36h7.77v-36h-7.77Z"></path><path class="cls-1" d="m258.18,29.04c.15-.99.48-1.76,1.01-2.31.53-.55,1.3-.92,2.3-1.11,1.01-.2,2.38-.29,4.11-.29v-7.13h-.65c-2.83,0-5.2.24-7.09.72-1.9.48-3.41,1.28-4.54,2.41-1.13,1.13-1.93,2.64-2.41,4.54-.48,1.89-.72,4.23-.72,7.02v1.87h-6.12v6.91h6.12v29.09h7.78v-29.09h7.63v-6.91h-7.63v-1.8c0-1.63.07-2.94.21-3.92Z"></path><path class="cls-1" d="m300.88,34.76l-9.94,24.98-10.51-24.98h-8.28l14.9,34.13-7.7,18.5h7.92l21.74-52.63h-8.13Z"></path></svg>