<svg xmlns="http://www.w3.org/2000/svg" id="Capa_1" data-name="Capa 1" viewBox="0 0 256 256"><defs><style>      .cls-1 {        fill: #070c08;      }      .cls-1, .cls-2, .cls-3, .cls-4, .cls-5 {        stroke-width: 0px;      }      .cls-2 {        fill: #cc1412;      }      .cls-3 {        fill: #5d8c64;      }      .cls-4 {        fill: #f78600;      }      .cls-5 {        fill: #4038cb;      }    </style></defs><path class="cls-4" d="m210.78,114.35c-6.86-26.82-14.8-54.05-23.57-80.96-.42-1.26-.79-2.43-1.17-3.59l-1.91-5.79-5.72,2.17-2.12.82c-.98.35-1.94.72-2.89,1.1-17.34,6.63-34.64,13.28-51.39,19.79-54.71,21.22-64.14,25.46-72.77,36.97-1.31,1.77-2.57,3.62-3.69,5.53-.23.4-.49.84-.75,1.31l-.77,1.33v.07c-15.68,29.59-4.71,65.68-3.41,69.76,6.37,19.68,18.79,36.25,36.92,49.22,13.54,9.69,26,14.17,29.5,15.31,9.55,3.03,19.89,4.62,29.97,4.62,12.81,0,25.09-2.5,36.53-7.47,21.31-9.24,35.71-22.38,42.83-39.07,6.42-15.05,5.39-28.36-5.58-71.11Zm.21,68.83c-6.51,15.26-19.89,27.38-39.77,36.01-10.71,4.64-22.22,6.98-34.22,6.98-9.5,0-19.25-1.49-28.15-4.32-3.31-1.1-15.08-5.32-27.91-14.52-17.11-12.25-28.8-27.82-34.78-46.28-1.33-4.15-11.83-38.88,3.69-66.49.23-.42.47-.82.72-1.21,1-1.7,2.1-3.36,3.31-4.99,7.7-10.27,16.85-14.33,70.2-35.03,16.92-6.56,34.15-13.19,51.35-19.77,1.68-.63,3.36-1.28,5.04-1.94.4,1.21.79,2.4,1.17,3.59,8.73,26.72,16.62,53.8,23.48,80.59,10.55,41.19,11.65,53.8,5.86,67.38Z"></path><path class="cls-5" d="m209.09,171.38c-.58,2.73-1.43,5.31-2.54,7.93-9.49,22.25-31.7,31.89-37.99,34.61-11.63,5.04-22.87,6.64-32.46,6.64-5.16,0-9.85-.46-13.88-1.1,11.49-1.56,26.93-5.73,41.96-16.29,14.3-10.03,25.01-26.47,29.16-33.49,5.15.76,10.41,1.34,15.76,1.7Z"></path><path class="cls-5" d="m209.92,159.2c-5.56-.38-11.04-.99-16.39-1.83-1.81-6.2-4.52-15.69-6.47-23.38-6.23-24.62-9.67-38.19-10.22-55.6-.38-11.85.69-23.93,3.18-36.01,9.52,29.11,16.49,54.15,21.47,73.6,5.22,20.4,7.97,33.41,8.44,43.21Z"></path><path class="cls-5" d="m171.32,38.27c-7.04,8.04-14.34,16.06-21.74,23.9-9.26,9.8-16.14,16.63-21.67,22.12-10.65,10.58-15.99,15.88-21.97,26.37-1.14,1.99-2.99,5.26-5.02,9.64-23.96-15.66-38.2-30.11-38.56-30.49l-2.45-2.44c5.24-6.02,12.14-10.06,31.27-17.93,1.62-.67,3.32-1.36,5.13-2.08,1.01-.41,2.06-.84,3.15-1.27,5.38-2.15,11.54-4.56,18.63-7.31.79-.31,1.59-.62,2.39-.93.82-.32,1.63-.64,2.47-.96,1.01-.39,2.06-.8,3.13-1.21,1.02-.39,2.07-.8,3.14-1.22,1.75-.68,3.58-1.38,5.46-2.11,1.83-.71,3.73-1.44,5.68-2.2,3.9-1.5,8.06-3.11,12.43-4.79,5.78-2.22,11.96-4.6,18.51-7.09Z"></path><path class="cls-5" d="m106.3,215.33c-10.97-4.2-44.07-19.56-55.95-56.28-.36-1.11-1.62-5.17-2.71-11.05-.06-.31-.11-.63-.17-.96-.15-.87-.3-1.78-.44-2.73-.02-.1-.04-.21-.05-.32-.06-.35-.1-.7-.15-1.07-.06-.43-.11-.87-.17-1.31-.1-.81-.19-1.63-.27-2.48-.1-1.02-.19-2.06-.25-3.13-.03-.41-.06-.82-.08-1.23-.02-.31-.04-.62-.05-.93-.02-.43-.04-.88-.05-1.32-.04-1.09-.06-2.21-.05-3.33.06-9.77,1.72-20.71,6.81-30.9,0,0,0,0,0-.02.08-.15.16-.32.25-.48,0-.02,0-.04.03-.07,6.98,6.86,21.44,20.23,43.33,34.27-2.75,8.48-4.95,18.97-4.93,30.99.04,22.44,7.65,40.38,14.86,52.36Z"></path><path class="cls-1" d="m47.64,147.99c-1.91-9.49-1.78-16.56-1.72-18.81,0,1.13,0,2.24.05,3.33,0,.44.03.89.05,1.32,0,.31.03.62.05.93.02.41.05.82.08,1.23.07,1.07.15,2.11.25,3.13.08.84.17,1.67.27,2.48.06.44.11.88.17,1.31.05.37.09.72.15,1.07,0,.11.03.22.05.32.13.95.28,1.86.44,2.73.06.33.11.65.17.96Z"></path><path class="cls-1" d="m53,97.78c-.09.16-.17.33-.25.48.08-.17.14-.35.22-.52,0,0,.03.03.04.04Z"></path><path class="cls-1" d="m152.81,45.37c-4.37,1.68-8.53,3.28-12.43,4.79-1.95.76-3.85,1.48-5.68,2.2-1.89.73-3.71,1.44-5.46,2.11-1.07.42-2.12.83-3.14,1.22-1.08.41-2.12.82-3.13,1.21-.84.32-1.65.64-2.47.96-.81.31-1.6.62-2.39.93-7.08,2.75-13.25,5.16-18.63,7.31-1.09.43-2.14.85-3.15,1.27-1.81.72-3.51,1.42-5.13,2.08,10.56-4.85,24.68-10.31,53.27-20.96,2.53-.94,5.33-1.98,8.35-3.11Z"></path><path class="cls-4" d="m180.68,135.61c-4.5-18.48-8.8-36.01-8.82-57.11-.02-10.06.96-24.3,5.46-41.29-5.93,6.65-16.83,22.97-22.97,29.48-9.34,9.87-16.24,16.73-21.82,22.27-10.53,10.48-15.33,15.26-20.87,24.95-1.14,2.01-3.08,5.39-5.13,9.97,20.96,13,48.36,26.16,79.8,32.25-1.49-4.95-3.55-11.97-5.65-20.52Zm-66.54-14c1.05-2.03,1.96-3.64,2.61-4.78,5.13-9.01,9.45-13.28,19.86-23.64l.07-.05c5.6-5.58,12.56-12.49,21.94-22.43,2.38-2.5,5.32-6.26,8.38-10.32-.68,6.04-1,12.11-1,18.11,0,21.8,4.36,39.63,8.99,58.51.93,3.76,1.91,7.52,2.94,11.25-21.43-5.23-42.83-14.19-63.79-26.65Z"></path><path class="cls-2" d="m102.11,135.59c-2.33,7.66-4.13,16.9-4.11,27.38.05,22.1,7.96,44.18,15.01,55.36,10.6-.44,29.31-7.84,47.4-20.52,11.86-8.31,21.29-21.87,25.91-29.29-34.24-6.23-63.46-20.33-84.21-32.93Zm54.92,57.41c-16.15,11.34-31.62,17.53-40.87,19.09-6.18-11.37-12.25-30.39-12.28-49.15-.02-6.14.63-12.3,1.94-18.34,17.57,9.99,42.15,21.52,70.76,27.94-4.83,6.77-11.65,14.91-19.56,20.47Z"></path><path class="cls-3" d="m49.59,94.28l.99-.95c-.24.4-.48.81-.71,1.22l-.27-.27Z"></path></svg>